<svg id="Layer_1" data-name="Layer 1" xmlns="http://www.w3.org/2000/svg" viewBox="0 0 572.51 154.08"><title>logo-2</title><path d="M857.55,436.88v81.6h37.29v19.79H832.58V436.88Z" transform="translate(-652.5 -415.92)"/><path d="M1004.75,487.58a58.47,58.47,0,0,1-3.5,20.32,49.4,49.4,0,0,1-10.13,16.67,47.81,47.81,0,0,1-16.21,11.34A54.31,54.31,0,0,1,953,540.09a54.91,54.91,0,0,1-22-4.18,47.62,47.62,0,0,1-16.28-11.34,48.27,48.27,0,0,1-10.05-16.67,61.93,61.93,0,0,1,0-40.65,47.15,47.15,0,0,1,26.33-28,54.91,54.91,0,0,1,22-4.18,54.31,54.31,0,0,1,21.92,4.18,48.09,48.09,0,0,1,16.21,11.34,49.5,49.5,0,0,1,10.13,16.67A58.53,58.53,0,0,1,1004.75,487.58ZM953,520.3a26.28,26.28,0,0,0,11.57-2.43,23.86,23.86,0,0,0,8.45-6.78,29.16,29.16,0,0,0,5.1-10.35,52.73,52.73,0,0,0,0-26.33,29.16,29.16,0,0,0-5.1-10.35,24,24,0,0,0-8.45-6.78,28.95,28.95,0,0,0-23.22,0,24.23,24.23,0,0,0-8.37,6.78,29.16,29.16,0,0,0-5.1,10.35,52.73,52.73,0,0,0,0,26.33,29.16,29.16,0,0,0,5.1,10.35,24.12,24.12,0,0,0,8.37,6.78A26.15,26.15,0,0,0,953,520.3Z" transform="translate(-652.5 -415.92)"/><path d="M1071.57,435.06q19.79,0,33.19,6.19L1101.41,460a73.9,73.9,0,0,0-27.4-5.17,44.12,44.12,0,0,0-13.7,2,26.63,26.63,0,0,0-10.43,6.16,27.68,27.68,0,0,0-6.7,10.66,45.22,45.22,0,0,0-2.36,15.45q0,15.82,8.3,23.9t24.43,8.06a40.25,40.25,0,0,0,6.7-.53,31.13,31.13,0,0,0,5.33-1.29V490.92H1108v41.81a69.72,69.72,0,0,1-16.67,5.29,105,105,0,0,1-21.08,2.07,65.19,65.19,0,0,1-22.83-3.73,48.82,48.82,0,0,1-17-10.42,44.87,44.87,0,0,1-10.73-16.06,55.62,55.62,0,0,1-3.73-20.78,62.73,62.73,0,0,1,3.73-22.15,46.48,46.48,0,0,1,10.88-17.05,48.89,48.89,0,0,1,17.51-11A66.8,66.8,0,0,1,1071.57,435.06Z" transform="translate(-652.5 -415.92)"/><path d="M1225,487.58a58.47,58.47,0,0,1-3.5,20.32,49.37,49.37,0,0,1-10.12,16.67,47.91,47.91,0,0,1-16.21,11.34,59.77,59.77,0,0,1-43.92,0A47.56,47.56,0,0,1,1135,524.57a48.58,48.58,0,0,1-10-16.67,62.11,62.11,0,0,1,0-40.65,48.67,48.67,0,0,1,10-16.67,47.84,47.84,0,0,1,16.29-11.34,59.77,59.77,0,0,1,43.92,0,48.19,48.19,0,0,1,16.21,11.34,49.47,49.47,0,0,1,10.12,16.67A58.53,58.53,0,0,1,1225,487.58Zm-51.75,32.72a26.2,26.2,0,0,0,11.56-2.43,23.77,23.77,0,0,0,8.45-6.78,29,29,0,0,0,5.1-10.35,52.42,52.42,0,0,0,0-26.33,29,29,0,0,0-5.1-10.35,23.88,23.88,0,0,0-8.45-6.78,28.93,28.93,0,0,0-23.21,0,24,24,0,0,0-8.37,6.78,28.83,28.83,0,0,0-5.1,10.35,52.42,52.42,0,0,0,0,26.33,28.83,28.83,0,0,0,5.1,10.35,23.94,23.94,0,0,0,8.37,6.78A26.15,26.15,0,0,0,1173.26,520.3Z" transform="translate(-652.5 -415.92)"/><g id="_Group_" data-name="&lt;Group&gt;"><g id="_Group_2" data-name="&lt;Group&gt;"><path id="_Path_" data-name="&lt;Path&gt;" d="M728.07,494.43V570h0a75.57,75.57,0,0,1-75.57-75.57h75.57Z" transform="translate(-652.5 -415.92)"/><path id="_Path_2" data-name="&lt;Path&gt;" d="M728.07,491.49H652.5V415.92h0A75.57,75.57,0,0,1,728.07,491.49Z" transform="translate(-652.5 -415.92)"/><path id="_Path_3" data-name="&lt;Path&gt;" d="M806.58,494.43h0A75.57,75.57,0,0,1,731,570h0a75.57,75.57,0,0,1,75.57-75.57Z" transform="translate(-652.5 -415.92)"/><path id="_Path_4" data-name="&lt;Path&gt;" d="M806.58,491.49h0A75.58,75.58,0,0,1,731,415.92h0A75.57,75.57,0,0,1,806.58,491.49Z" transform="translate(-652.5 -415.92)"/></g></g></svg>