<svg id="Layer_1" data-name="Layer 1" xmlns="http://www.w3.org/2000/svg" viewBox="0 0 539.54 202.91"><title>logo-1</title><g id="_Group_" data-name="&lt;Group&gt;"><g id="_Group_2" data-name="&lt;Group&gt;"><g id="_Group_3" data-name="&lt;Group&gt;"><polygon id="_Path_" data-name="&lt;Path&gt;" points="0 32.86 55.64 0.86 55.54 65.05 0 32.86"/><polyline id="_Path_2" data-name="&lt;Path&gt;" points="114.99 32.45 59.61 0 59.2 64.19 114.99 32.45"/><polyline id="_Path_3" data-name="&lt;Path&gt;" points="117.53 99 117.53 34.81 61.94 66.91"/><polygon id="_Path_4" data-name="&lt;Path&gt;" points="0 99 55.59 131.1 55.59 66.91 0 99"/><polygon id="_Path_5" data-name="&lt;Path&gt;" points="58.77 68.18 58.77 132.37 114.36 100.27 58.77 68.18"/></g><g id="_Group_4" data-name="&lt;Group&gt;"><polygon id="_Path_6" data-name="&lt;Path&gt;" points="0.64 103.45 0.64 167.64 56.23 135.54 0.64 103.45"/><polygon id="_Path_7" data-name="&lt;Path&gt;" points="1.91 170.94 57.69 202.7 57.3 138.51 1.91 170.94"/><polygon id="_Path_8" data-name="&lt;Path&gt;" points="60.72 138.72 60.63 202.91 116.26 170.89 60.72 138.72"/></g></g></g><path d="M260.55,100.88v81.6h37.29v19.79H235.58V100.88Z" transform="translate(-88.47 -45.86)"/><path d="M407.75,151.58a58.47,58.47,0,0,1-3.5,20.32,49.4,49.4,0,0,1-10.13,16.67,47.81,47.81,0,0,1-16.21,11.34A54.31,54.31,0,0,1,356,204.09a54.91,54.91,0,0,1-22-4.18,47.62,47.62,0,0,1-16.28-11.34,48.27,48.27,0,0,1-10-16.67,61.93,61.93,0,0,1,0-40.65,47.15,47.15,0,0,1,26.33-28,54.91,54.91,0,0,1,22-4.18,54.31,54.31,0,0,1,21.92,4.18,48.09,48.09,0,0,1,16.21,11.34,49.5,49.5,0,0,1,10.13,16.67A58.53,58.53,0,0,1,407.75,151.58ZM356,184.3a26.28,26.28,0,0,0,11.57-2.43,23.86,23.86,0,0,0,8.45-6.78,29.16,29.16,0,0,0,5.1-10.35,52.73,52.73,0,0,0,0-26.33,29.16,29.16,0,0,0-5.1-10.35,24,24,0,0,0-8.45-6.78,28.95,28.95,0,0,0-23.22,0,24.23,24.23,0,0,0-8.37,6.78,29.16,29.16,0,0,0-5.1,10.35,52.73,52.73,0,0,0,0,26.33,29.16,29.16,0,0,0,5.1,10.35,24.12,24.12,0,0,0,8.37,6.78A26.15,26.15,0,0,0,356,184.3Z" transform="translate(-88.47 -45.86)"/><path d="M474.57,99.06q19.79,0,33.19,6.19L504.41,124a73.9,73.9,0,0,0-27.4-5.17,44.12,44.12,0,0,0-13.7,2A26.63,26.63,0,0,0,452.88,127a27.68,27.68,0,0,0-6.7,10.66,45.22,45.22,0,0,0-2.36,15.45q0,15.83,8.3,23.9t24.43,8.06a40.25,40.25,0,0,0,6.7-.53,31.13,31.13,0,0,0,5.33-1.29V154.92H511v41.81A69.72,69.72,0,0,1,494.28,202a105,105,0,0,1-21.08,2.07,65.19,65.19,0,0,1-22.83-3.73,48.82,48.82,0,0,1-17.05-10.42,44.87,44.87,0,0,1-10.73-16.06,55.62,55.62,0,0,1-3.73-20.78A62.73,62.73,0,0,1,422.59,131a46.48,46.48,0,0,1,10.88-17,48.89,48.89,0,0,1,17.51-11A66.8,66.8,0,0,1,474.57,99.06Z" transform="translate(-88.47 -45.86)"/><path d="M628,151.58a58.47,58.47,0,0,1-3.5,20.32,49.37,49.37,0,0,1-10.12,16.67,47.91,47.91,0,0,1-16.21,11.34,59.77,59.77,0,0,1-43.92,0A47.66,47.66,0,0,1,538,188.57a48.58,48.58,0,0,1-10.05-16.67,62.11,62.11,0,0,1,0-40.65A48.67,48.67,0,0,1,538,114.58a47.93,47.93,0,0,1,16.29-11.34,59.77,59.77,0,0,1,43.92,0,48.19,48.19,0,0,1,16.21,11.34,49.47,49.47,0,0,1,10.12,16.67A58.53,58.53,0,0,1,628,151.58ZM576.26,184.3a26.2,26.2,0,0,0,11.56-2.43,23.77,23.77,0,0,0,8.45-6.78,29,29,0,0,0,5.1-10.35,52.42,52.42,0,0,0,0-26.33,29,29,0,0,0-5.1-10.35,23.88,23.88,0,0,0-8.45-6.78,28.93,28.93,0,0,0-23.21,0,24,24,0,0,0-8.37,6.78,28.83,28.83,0,0,0-5.1,10.35,52.42,52.42,0,0,0,0,26.33,28.83,28.83,0,0,0,5.1,10.35,23.94,23.94,0,0,0,8.37,6.78A26.15,26.15,0,0,0,576.26,184.3Z" transform="translate(-88.47 -45.86)"/></svg>